{
	"asset":{
		"generator":"Khronos glTF Blender I/O v4.0.44",
		"version":"2.0"
	},
	"scene":0,
	"scenes":[
		{
			"name":"Scene",
			"nodes":[
				0
			]
		}
	],
	"nodes":[
		{
			"mesh":0,
			"name":"container"
		}
	],
	"materials":[
		{
			"doubleSided":true,
			"name":"metal",
			"pbrMetallicRoughness":{
				"baseColorFactor":[
					0.4828864634037018,
					0.4828864634037018,
					0.4828864634037018,
					1
				],
				"metallicFactor":0,
				"roughnessFactor":0.5
			}
		},
		{
			"doubleSided":true,
			"name":"red",
			"pbrMetallicRoughness":{
				"baseColorFactor":[
					0.8001965880393982,
					0.0901048332452774,
					0.08793196082115173,
					1
				],
				"metallicFactor":0,
				"roughnessFactor":0.5
			}
		},
		{
			"doubleSided":true,
			"name":"glass",
			"pbrMetallicRoughness":{
				"baseColorFactor":[
					0.048638783395290375,
					0.048638783395290375,
					0.048638783395290375,
					1
				],
				"metallicFactor":0,
				"roughnessFactor":0.5
			}
		},
		{
			"doubleSided":true,
			"name":"window_frame",
			"pbrMetallicRoughness":{
				"baseColorFactor":[
					0.8579276204109192,
					0.8808721303939819,
					0.8525083661079407,
					1
				],
				"metallicFactor":0,
				"roughnessFactor":0.5
			}
		}
	],
	"meshes":[
		{
			"name":"Cube.034",
			"primitives":[
				{
					"attributes":{
						"POSITION":0,
						"NORMAL":1,
						"TEXCOORD_0":2
					},
					"indices":3,
					"material":0
				},
				{
					"attributes":{
						"POSITION":4,
						"NORMAL":5,
						"TEXCOORD_0":6
					},
					"indices":7,
					"material":1
				},
				{
					"attributes":{
						"POSITION":8,
						"NORMAL":9,
						"TEXCOORD_0":10
					},
					"indices":11,
					"material":2
				},
				{
					"attributes":{
						"POSITION":12,
						"NORMAL":13,
						"TEXCOORD_0":14
					},
					"indices":15,
					"material":3
				}
			]
		}
	],
	"accessors":[
		{
			"bufferView":0,
			"componentType":5126,
			"count":218,
			"max":[
				1.2074358463287354,
				2.700000286102295,
				5.100886821746826
			],
			"min":[
				-1.1925642490386963,
				4.76837158203125e-07,
				-5.318809986114502
			],
			"type":"VEC3"
		},
		{
			"bufferView":1,
			"componentType":5126,
			"count":218,
			"type":"VEC3"
		},
		{
			"bufferView":2,
			"componentType":5126,
			"count":218,
			"type":"VEC2"
		},
		{
			"bufferView":3,
			"componentType":5123,
			"count":498,
			"type":"SCALAR"
		},
		{
			"bufferView":4,
			"componentType":5126,
			"count":110,
			"max":[
				1.094723105430603,
				2.6305770874023438,
				5.01246976852417
			],
			"min":[
				-1.0950562953948975,
				0.06598305702209473,
				-5.186704158782959
			],
			"type":"VEC3"
		},
		{
			"bufferView":5,
			"componentType":5126,
			"count":110,
			"type":"VEC3"
		},
		{
			"bufferView":6,
			"componentType":5126,
			"count":110,
			"type":"VEC2"
		},
		{
			"bufferView":7,
			"componentType":5123,
			"count":252,
			"type":"SCALAR"
		},
		{
			"bufferView":8,
			"componentType":5126,
			"count":24,
			"max":[
				0.9912436008453369,
				2.100796937942505,
				3.47133207321167
			],
			"min":[
				0.9912436008453369,
				1.2272424697875977,
				-3.681828022003174
			],
			"type":"VEC3"
		},
		{
			"bufferView":9,
			"componentType":5126,
			"count":24,
			"type":"VEC3"
		},
		{
			"bufferView":10,
			"componentType":5126,
			"count":24,
			"type":"VEC2"
		},
		{
			"bufferView":11,
			"componentType":5123,
			"count":36,
			"type":"SCALAR"
		},
		{
			"bufferView":12,
			"componentType":5126,
			"count":141,
			"max":[
				1.0354079008102417,
				2.1538286209106445,
				3.5243630409240723
			],
			"min":[
				0.9912436008453369,
				1.1742106676101685,
				-3.7348594665527344
			],
			"type":"VEC3"
		},
		{
			"bufferView":13,
			"componentType":5126,
			"count":141,
			"type":"VEC3"
		},
		{
			"bufferView":14,
			"componentType":5126,
			"count":141,
			"type":"VEC2"
		},
		{
			"bufferView":15,
			"componentType":5123,
			"count":270,
			"type":"SCALAR"
		}
	],
	"bufferViews":[
		{
			"buffer":0,
			"byteLength":2616,
			"byteOffset":0,
			"target":34962
		},
		{
			"buffer":0,
			"byteLength":2616,
			"byteOffset":2616,
			"target":34962
		},
		{
			"buffer":0,
			"byteLength":1744,
			"byteOffset":5232,
			"target":34962
		},
		{
			"buffer":0,
			"byteLength":996,
			"byteOffset":6976,
			"target":34963
		},
		{
			"buffer":0,
			"byteLength":1320,
			"byteOffset":7972,
			"target":34962
		},
		{
			"buffer":0,
			"byteLength":1320,
			"byteOffset":9292,
			"target":34962
		},
		{
			"buffer":0,
			"byteLength":880,
			"byteOffset":10612,
			"target":34962
		},
		{
			"buffer":0,
			"byteLength":504,
			"byteOffset":11492,
			"target":34963
		},
		{
			"buffer":0,
			"byteLength":288,
			"byteOffset":11996,
			"target":34962
		},
		{
			"buffer":0,
			"byteLength":288,
			"byteOffset":12284,
			"target":34962
		},
		{
			"buffer":0,
			"byteLength":192,
			"byteOffset":12572,
			"target":34962
		},
		{
			"buffer":0,
			"byteLength":72,
			"byteOffset":12764,
			"target":34963
		},
		{
			"buffer":0,
			"byteLength":1692,
			"byteOffset":12836,
			"target":34962
		},
		{
			"buffer":0,
			"byteLength":1692,
			"byteOffset":14528,
			"target":34962
		},
		{
			"buffer":0,
			"byteLength":1128,
			"byteOffset":16220,
			"target":34962
		},
		{
			"buffer":0,
			"byteLength":540,
			"byteOffset":17348,
			"target":34963
		}
	],
	"buffers":[
		{
			"byteLength":17888,
			"uri":"container.bin"
		}
	]
}
