{
	"asset":{
		"generator":"Khronos glTF Blender I/O v4.0.44",
		"version":"2.0"
	},
	"scene":0,
	"scenes":[
		{
			"name":"Scene",
			"nodes":[
				0
			]
		}
	],
	"nodes":[
		{
			"mesh":0,
			"name":"house_L"
		}
	],
	"materials":[
		{
			"doubleSided":true,
			"name":"wall_bright",
			"pbrMetallicRoughness":{
				"baseColorFactor":[
					0.8009074926376343,
					0.7237274050712585,
					0.4527808427810669,
					1
				],
				"metallicFactor":0,
				"roughnessFactor":0.5
			}
		},
		{
			"doubleSided":true,
			"name":"roof",
			"pbrMetallicRoughness":{
				"baseColorFactor":[
					0.2653217911720276,
					0.024257466197013855,
					0.0159663874655962,
					1
				],
				"metallicFactor":0,
				"roughnessFactor":0.5
			}
		},
		{
			"doubleSided":true,
			"name":"metal",
			"pbrMetallicRoughness":{
				"baseColorFactor":[
					0.4828864634037018,
					0.4828864634037018,
					0.4828864634037018,
					1
				],
				"metallicFactor":0,
				"roughnessFactor":0.5
			}
		},
		{
			"doubleSided":true,
			"name":"glass",
			"pbrMetallicRoughness":{
				"baseColorFactor":[
					0.048638783395290375,
					0.048638783395290375,
					0.048638783395290375,
					1
				],
				"metallicFactor":0,
				"roughnessFactor":0.5
			}
		},
		{
			"doubleSided":true,
			"name":"window_frame",
			"pbrMetallicRoughness":{
				"baseColorFactor":[
					0.8579276204109192,
					0.8808721303939819,
					0.8525083661079407,
					1
				],
				"metallicFactor":0,
				"roughnessFactor":0.5
			}
		}
	],
	"meshes":[
		{
			"name":"Cube.002",
			"primitives":[
				{
					"attributes":{
						"POSITION":0,
						"NORMAL":1,
						"TEXCOORD_0":2
					},
					"indices":3,
					"material":0
				},
				{
					"attributes":{
						"POSITION":4,
						"NORMAL":5,
						"TEXCOORD_0":6
					},
					"indices":7,
					"material":1
				},
				{
					"attributes":{
						"POSITION":8,
						"NORMAL":9,
						"TEXCOORD_0":10
					},
					"indices":11,
					"material":2
				},
				{
					"attributes":{
						"POSITION":12,
						"NORMAL":13,
						"TEXCOORD_0":14
					},
					"indices":15,
					"material":3
				},
				{
					"attributes":{
						"POSITION":16,
						"NORMAL":17,
						"TEXCOORD_0":18
					},
					"indices":19,
					"material":4
				}
			]
		}
	],
	"accessors":[
		{
			"bufferView":0,
			"componentType":5126,
			"count":350,
			"max":[
				2.6058928966522217,
				4.076870441436768,
				8.819302558898926
			],
			"min":[
				-8.179637908935547,
				0,
				-2.6058928966522217
			],
			"type":"VEC3"
		},
		{
			"bufferView":1,
			"componentType":5126,
			"count":350,
			"type":"VEC3"
		},
		{
			"bufferView":2,
			"componentType":5126,
			"count":350,
			"type":"VEC2"
		},
		{
			"bufferView":3,
			"componentType":5123,
			"count":798,
			"type":"SCALAR"
		},
		{
			"bufferView":4,
			"componentType":5126,
			"count":48,
			"max":[
				2.918747901916504,
				4.213029384613037,
				9.018877029418945
			],
			"min":[
				-8.622125625610352,
				2.426558494567871,
				-3.089897871017456
			],
			"type":"VEC3"
		},
		{
			"bufferView":5,
			"componentType":5126,
			"count":48,
			"type":"VEC3"
		},
		{
			"bufferView":6,
			"componentType":5126,
			"count":48,
			"type":"VEC2"
		},
		{
			"bufferView":7,
			"componentType":5123,
			"count":96,
			"type":"SCALAR"
		},
		{
			"bufferView":8,
			"componentType":5126,
			"count":386,
			"max":[
				2.918747901916504,
				4.213029384613037,
				9.018877029418945
			],
			"min":[
				-8.622125625610352,
				0.1816708892583847,
				-3.089897871017456
			],
			"type":"VEC3"
		},
		{
			"bufferView":9,
			"componentType":5126,
			"count":386,
			"type":"VEC3"
		},
		{
			"bufferView":10,
			"componentType":5126,
			"count":386,
			"type":"VEC2"
		},
		{
			"bufferView":11,
			"componentType":5123,
			"count":873,
			"type":"SCALAR"
		},
		{
			"bufferView":12,
			"componentType":5126,
			"count":80,
			"max":[
				1.4329726696014404,
				1.8517638444900513,
				7.070491790771484
			],
			"min":[
				-7.978512763977051,
				0.8860347867012024,
				-0.9462452530860901
			],
			"type":"VEC3"
		},
		{
			"bufferView":13,
			"componentType":5126,
			"count":80,
			"type":"VEC3"
		},
		{
			"bufferView":14,
			"componentType":5126,
			"count":80,
			"type":"VEC2"
		},
		{
			"bufferView":15,
			"componentType":5123,
			"count":120,
			"type":"SCALAR"
		},
		{
			"bufferView":16,
			"componentType":5126,
			"count":380,
			"max":[
				1.487327218055725,
				1.906118631362915,
				7.1248459815979
			],
			"min":[
				-7.978512763977051,
				0.8316802382469177,
				-1.0005993843078613
			],
			"type":"VEC3"
		},
		{
			"bufferView":17,
			"componentType":5126,
			"count":380,
			"type":"VEC3"
		},
		{
			"bufferView":18,
			"componentType":5126,
			"count":380,
			"type":"VEC2"
		},
		{
			"bufferView":19,
			"componentType":5123,
			"count":750,
			"type":"SCALAR"
		}
	],
	"bufferViews":[
		{
			"buffer":0,
			"byteLength":4200,
			"byteOffset":0,
			"target":34962
		},
		{
			"buffer":0,
			"byteLength":4200,
			"byteOffset":4200,
			"target":34962
		},
		{
			"buffer":0,
			"byteLength":2800,
			"byteOffset":8400,
			"target":34962
		},
		{
			"buffer":0,
			"byteLength":1596,
			"byteOffset":11200,
			"target":34963
		},
		{
			"buffer":0,
			"byteLength":576,
			"byteOffset":12796,
			"target":34962
		},
		{
			"buffer":0,
			"byteLength":576,
			"byteOffset":13372,
			"target":34962
		},
		{
			"buffer":0,
			"byteLength":384,
			"byteOffset":13948,
			"target":34962
		},
		{
			"buffer":0,
			"byteLength":192,
			"byteOffset":14332,
			"target":34963
		},
		{
			"buffer":0,
			"byteLength":4632,
			"byteOffset":14524,
			"target":34962
		},
		{
			"buffer":0,
			"byteLength":4632,
			"byteOffset":19156,
			"target":34962
		},
		{
			"buffer":0,
			"byteLength":3088,
			"byteOffset":23788,
			"target":34962
		},
		{
			"buffer":0,
			"byteLength":1746,
			"byteOffset":26876,
			"target":34963
		},
		{
			"buffer":0,
			"byteLength":960,
			"byteOffset":28624,
			"target":34962
		},
		{
			"buffer":0,
			"byteLength":960,
			"byteOffset":29584,
			"target":34962
		},
		{
			"buffer":0,
			"byteLength":640,
			"byteOffset":30544,
			"target":34962
		},
		{
			"buffer":0,
			"byteLength":240,
			"byteOffset":31184,
			"target":34963
		},
		{
			"buffer":0,
			"byteLength":4560,
			"byteOffset":31424,
			"target":34962
		},
		{
			"buffer":0,
			"byteLength":4560,
			"byteOffset":35984,
			"target":34962
		},
		{
			"buffer":0,
			"byteLength":3040,
			"byteOffset":40544,
			"target":34962
		},
		{
			"buffer":0,
			"byteLength":1500,
			"byteOffset":43584,
			"target":34963
		}
	],
	"buffers":[
		{
			"byteLength":45084,
			"uri":"house_L.bin"
		}
	]
}
