{
	"asset":{
		"generator":"Khronos glTF Blender I/O v4.0.44",
		"version":"2.0"
	},
	"scene":0,
	"scenes":[
		{
			"name":"Scene",
			"nodes":[
				0
			]
		}
	],
	"nodes":[
		{
			"mesh":0,
			"name":"house_simple"
		}
	],
	"materials":[
		{
			"doubleSided":true,
			"name":"wall_bright",
			"pbrMetallicRoughness":{
				"baseColorFactor":[
					0.8009074926376343,
					0.7237274050712585,
					0.4527808427810669,
					1
				],
				"metallicFactor":0,
				"roughnessFactor":0.5
			}
		},
		{
			"doubleSided":true,
			"name":"roof",
			"pbrMetallicRoughness":{
				"baseColorFactor":[
					0.2653217911720276,
					0.024257466197013855,
					0.0159663874655962,
					1
				],
				"metallicFactor":0,
				"roughnessFactor":0.5
			}
		},
		{
			"doubleSided":true,
			"name":"metal",
			"pbrMetallicRoughness":{
				"baseColorFactor":[
					0.4828864634037018,
					0.4828864634037018,
					0.4828864634037018,
					1
				],
				"metallicFactor":0,
				"roughnessFactor":0.5
			}
		},
		{
			"doubleSided":true,
			"name":"glass",
			"pbrMetallicRoughness":{
				"baseColorFactor":[
					0.048638783395290375,
					0.048638783395290375,
					0.048638783395290375,
					1
				],
				"metallicFactor":0,
				"roughnessFactor":0.5
			}
		},
		{
			"doubleSided":true,
			"name":"window_frame",
			"pbrMetallicRoughness":{
				"baseColorFactor":[
					0.8579276204109192,
					0.8808721303939819,
					0.8525083661079407,
					1
				],
				"metallicFactor":0,
				"roughnessFactor":0.5
			}
		}
	],
	"meshes":[
		{
			"name":"Cube.001",
			"primitives":[
				{
					"attributes":{
						"POSITION":0,
						"NORMAL":1,
						"TEXCOORD_0":2
					},
					"indices":3,
					"material":0
				},
				{
					"attributes":{
						"POSITION":4,
						"NORMAL":5,
						"TEXCOORD_0":6
					},
					"indices":7,
					"material":1
				},
				{
					"attributes":{
						"POSITION":8,
						"NORMAL":9,
						"TEXCOORD_0":10
					},
					"indices":11,
					"material":2
				},
				{
					"attributes":{
						"POSITION":12,
						"NORMAL":13,
						"TEXCOORD_0":14
					},
					"indices":15,
					"material":3
				},
				{
					"attributes":{
						"POSITION":16,
						"NORMAL":17,
						"TEXCOORD_0":18
					},
					"indices":19,
					"material":4
				}
			]
		}
	],
	"accessors":[
		{
			"bufferView":0,
			"componentType":5126,
			"count":152,
			"max":[
				2.605893135070801,
				2.6058928966522217,
				2.6058928966522217
			],
			"min":[
				-2.605893135070801,
				0,
				-2.6058928966522217
			],
			"type":"VEC3"
		},
		{
			"bufferView":1,
			"componentType":5126,
			"count":152,
			"type":"VEC3"
		},
		{
			"bufferView":2,
			"componentType":5126,
			"count":152,
			"type":"VEC2"
		},
		{
			"bufferView":3,
			"componentType":5123,
			"count":354,
			"type":"SCALAR"
		},
		{
			"bufferView":4,
			"componentType":5126,
			"count":28,
			"max":[
				2.9014039039611816,
				4.681590557098389,
				2.9014039039611816
			],
			"min":[
				-2.9014039039611816,
				2.533946990966797,
				-2.9014039039611816
			],
			"type":"VEC3"
		},
		{
			"bufferView":5,
			"componentType":5126,
			"count":28,
			"type":"VEC3"
		},
		{
			"bufferView":6,
			"componentType":5126,
			"count":28,
			"type":"VEC2"
		},
		{
			"bufferView":7,
			"componentType":5123,
			"count":36,
			"type":"SCALAR"
		},
		{
			"bufferView":8,
			"componentType":5126,
			"count":226,
			"max":[
				2.9014039039611816,
				2.6058928966522217,
				2.9014039039611816
			],
			"min":[
				-2.9014039039611816,
				0.8179337382316589,
				-2.9014039039611816
			],
			"type":"VEC3"
		},
		{
			"bufferView":9,
			"componentType":5126,
			"count":226,
			"type":"VEC3"
		},
		{
			"bufferView":10,
			"componentType":5126,
			"count":226,
			"type":"VEC2"
		},
		{
			"bufferView":11,
			"componentType":5123,
			"count":456,
			"type":"SCALAR"
		},
		{
			"bufferView":12,
			"componentType":5126,
			"count":56,
			"max":[
				2.404764175415039,
				1.8887145519256592,
				1.6949751377105713
			],
			"min":[
				-2.40476393699646,
				0.9229855537414551,
				-1.7968904972076416
			],
			"type":"VEC3"
		},
		{
			"bufferView":13,
			"componentType":5126,
			"count":56,
			"type":"VEC3"
		},
		{
			"bufferView":14,
			"componentType":5126,
			"count":56,
			"type":"VEC2"
		},
		{
			"bufferView":15,
			"componentType":5123,
			"count":84,
			"type":"SCALAR"
		},
		{
			"bufferView":16,
			"componentType":5126,
			"count":224,
			"max":[
				2.4047679901123047,
				1.9430694580078125,
				1.7493298053741455
			],
			"min":[
				-2.4047677516937256,
				0.8686310052871704,
				-1.851244568824768
			],
			"type":"VEC3"
		},
		{
			"bufferView":17,
			"componentType":5126,
			"count":224,
			"type":"VEC3"
		},
		{
			"bufferView":18,
			"componentType":5126,
			"count":224,
			"type":"VEC2"
		},
		{
			"bufferView":19,
			"componentType":5123,
			"count":432,
			"type":"SCALAR"
		}
	],
	"bufferViews":[
		{
			"buffer":0,
			"byteLength":1824,
			"byteOffset":0,
			"target":34962
		},
		{
			"buffer":0,
			"byteLength":1824,
			"byteOffset":1824,
			"target":34962
		},
		{
			"buffer":0,
			"byteLength":1216,
			"byteOffset":3648,
			"target":34962
		},
		{
			"buffer":0,
			"byteLength":708,
			"byteOffset":4864,
			"target":34963
		},
		{
			"buffer":0,
			"byteLength":336,
			"byteOffset":5572,
			"target":34962
		},
		{
			"buffer":0,
			"byteLength":336,
			"byteOffset":5908,
			"target":34962
		},
		{
			"buffer":0,
			"byteLength":224,
			"byteOffset":6244,
			"target":34962
		},
		{
			"buffer":0,
			"byteLength":72,
			"byteOffset":6468,
			"target":34963
		},
		{
			"buffer":0,
			"byteLength":2712,
			"byteOffset":6540,
			"target":34962
		},
		{
			"buffer":0,
			"byteLength":2712,
			"byteOffset":9252,
			"target":34962
		},
		{
			"buffer":0,
			"byteLength":1808,
			"byteOffset":11964,
			"target":34962
		},
		{
			"buffer":0,
			"byteLength":912,
			"byteOffset":13772,
			"target":34963
		},
		{
			"buffer":0,
			"byteLength":672,
			"byteOffset":14684,
			"target":34962
		},
		{
			"buffer":0,
			"byteLength":672,
			"byteOffset":15356,
			"target":34962
		},
		{
			"buffer":0,
			"byteLength":448,
			"byteOffset":16028,
			"target":34962
		},
		{
			"buffer":0,
			"byteLength":168,
			"byteOffset":16476,
			"target":34963
		},
		{
			"buffer":0,
			"byteLength":2688,
			"byteOffset":16644,
			"target":34962
		},
		{
			"buffer":0,
			"byteLength":2688,
			"byteOffset":19332,
			"target":34962
		},
		{
			"buffer":0,
			"byteLength":1792,
			"byteOffset":22020,
			"target":34962
		},
		{
			"buffer":0,
			"byteLength":864,
			"byteOffset":23812,
			"target":34963
		}
	],
	"buffers":[
		{
			"byteLength":24676,
			"uri":"house_hip.bin"
		}
	]
}
