{
	"asset":{
		"generator":"Khronos glTF Blender I/O v4.0.44",
		"version":"2.0"
	},
	"scene":0,
	"scenes":[
		{
			"name":"Scene",
			"nodes":[
				0
			]
		}
	],
	"nodes":[
		{
			"mesh":0,
			"name":"house_gable"
		}
	],
	"materials":[
		{
			"doubleSided":true,
			"name":"wall_bright",
			"pbrMetallicRoughness":{
				"baseColorFactor":[
					0.8009074926376343,
					0.7237274050712585,
					0.4527808427810669,
					1
				],
				"metallicFactor":0,
				"roughnessFactor":0.5
			}
		},
		{
			"doubleSided":true,
			"name":"roof",
			"pbrMetallicRoughness":{
				"baseColorFactor":[
					0.2653217911720276,
					0.024257466197013855,
					0.0159663874655962,
					1
				],
				"metallicFactor":0,
				"roughnessFactor":0.5
			}
		},
		{
			"doubleSided":true,
			"name":"metal",
			"pbrMetallicRoughness":{
				"baseColorFactor":[
					0.4828864634037018,
					0.4828864634037018,
					0.4828864634037018,
					1
				],
				"metallicFactor":0,
				"roughnessFactor":0.5
			}
		},
		{
			"doubleSided":true,
			"name":"wood",
			"pbrMetallicRoughness":{
				"baseColorFactor":[
					0.5230136513710022,
					0.3814520239830017,
					0.2512706518173218,
					1
				],
				"metallicFactor":0,
				"roughnessFactor":0.5
			}
		},
		{
			"doubleSided":true,
			"name":"glass",
			"pbrMetallicRoughness":{
				"baseColorFactor":[
					0.048638783395290375,
					0.048638783395290375,
					0.048638783395290375,
					1
				],
				"metallicFactor":0,
				"roughnessFactor":0.5
			}
		},
		{
			"doubleSided":true,
			"name":"window_frame",
			"pbrMetallicRoughness":{
				"baseColorFactor":[
					0.8579276204109192,
					0.8808721303939819,
					0.8525083661079407,
					1
				],
				"metallicFactor":0,
				"roughnessFactor":0.5
			}
		}
	],
	"meshes":[
		{
			"name":"Cube",
			"primitives":[
				{
					"attributes":{
						"POSITION":0,
						"NORMAL":1,
						"TEXCOORD_0":2
					},
					"indices":3,
					"material":0
				},
				{
					"attributes":{
						"POSITION":4,
						"NORMAL":5,
						"TEXCOORD_0":6
					},
					"indices":7,
					"material":1
				},
				{
					"attributes":{
						"POSITION":8,
						"NORMAL":9,
						"TEXCOORD_0":10
					},
					"indices":11,
					"material":2
				},
				{
					"attributes":{
						"POSITION":12,
						"NORMAL":13,
						"TEXCOORD_0":14
					},
					"indices":15,
					"material":3
				},
				{
					"attributes":{
						"POSITION":16,
						"NORMAL":17,
						"TEXCOORD_0":18
					},
					"indices":19,
					"material":4
				},
				{
					"attributes":{
						"POSITION":20,
						"NORMAL":21,
						"TEXCOORD_0":22
					},
					"indices":23,
					"material":5
				}
			]
		}
	],
	"accessors":[
		{
			"bufferView":0,
			"componentType":5126,
			"count":190,
			"max":[
				2.6058928966522217,
				4.461147785186768,
				2.605893135070801
			],
			"min":[
				-2.7146666049957275,
				0,
				-2.6058928966522217
			],
			"type":"VEC3"
		},
		{
			"bufferView":1,
			"componentType":5126,
			"count":190,
			"type":"VEC3"
		},
		{
			"bufferView":2,
			"componentType":5126,
			"count":190,
			"type":"VEC2"
		},
		{
			"bufferView":3,
			"componentType":5123,
			"count":432,
			"type":"SCALAR"
		},
		{
			"bufferView":4,
			"componentType":5126,
			"count":32,
			"max":[
				2.918747901916504,
				4.597306728363037,
				3.089897871017456
			],
			"min":[
				-2.918747901916504,
				2.426558494567871,
				-3.089897871017456
			],
			"type":"VEC3"
		},
		{
			"bufferView":5,
			"componentType":5126,
			"count":32,
			"type":"VEC3"
		},
		{
			"bufferView":6,
			"componentType":5126,
			"count":32,
			"type":"VEC2"
		},
		{
			"bufferView":7,
			"componentType":5123,
			"count":72,
			"type":"SCALAR"
		},
		{
			"bufferView":8,
			"componentType":5126,
			"count":239,
			"max":[
				2.918747901916504,
				4.597306728363037,
				3.089897871017456
			],
			"min":[
				-2.918747901916504,
				0.9065953493118286,
				-3.089897871017456
			],
			"type":"VEC3"
		},
		{
			"bufferView":9,
			"componentType":5126,
			"count":239,
			"type":"VEC3"
		},
		{
			"bufferView":10,
			"componentType":5126,
			"count":239,
			"type":"VEC2"
		},
		{
			"bufferView":11,
			"componentType":5123,
			"count":540,
			"type":"SCALAR"
		},
		{
			"bufferView":12,
			"componentType":5126,
			"count":38,
			"max":[
				-2.4306840896606445,
				2.031730890274048,
				1.371617317199707
			],
			"min":[
				-2.477815628051758,
				0.12886393070220947,
				0.5029863119125366
			],
			"type":"VEC3"
		},
		{
			"bufferView":13,
			"componentType":5126,
			"count":38,
			"type":"VEC3"
		},
		{
			"bufferView":14,
			"componentType":5126,
			"count":38,
			"type":"VEC2"
		},
		{
			"bufferView":15,
			"componentType":5123,
			"count":84,
			"type":"SCALAR"
		},
		{
			"bufferView":16,
			"componentType":5126,
			"count":48,
			"max":[
				2.404510736465454,
				2.0219216346740723,
				2.404764413833618
			],
			"min":[
				-2.404763698577881,
				1.01164710521698,
				-1.8857920169830322
			],
			"type":"VEC3"
		},
		{
			"bufferView":17,
			"componentType":5126,
			"count":48,
			"type":"VEC3"
		},
		{
			"bufferView":18,
			"componentType":5126,
			"count":48,
			"type":"VEC2"
		},
		{
			"bufferView":19,
			"componentType":5123,
			"count":72,
			"type":"SCALAR"
		},
		{
			"bufferView":20,
			"componentType":5126,
			"count":228,
			"max":[
				2.4045135974884033,
				2.0762765407562256,
				2.4047677516937256
			],
			"min":[
				-2.4047675132751465,
				0.9572926163673401,
				-1.9401460886001587
			],
			"type":"VEC3"
		},
		{
			"bufferView":21,
			"componentType":5126,
			"count":228,
			"type":"VEC3"
		},
		{
			"bufferView":22,
			"componentType":5126,
			"count":228,
			"type":"VEC2"
		},
		{
			"bufferView":23,
			"componentType":5123,
			"count":450,
			"type":"SCALAR"
		}
	],
	"bufferViews":[
		{
			"buffer":0,
			"byteLength":2280,
			"byteOffset":0,
			"target":34962
		},
		{
			"buffer":0,
			"byteLength":2280,
			"byteOffset":2280,
			"target":34962
		},
		{
			"buffer":0,
			"byteLength":1520,
			"byteOffset":4560,
			"target":34962
		},
		{
			"buffer":0,
			"byteLength":864,
			"byteOffset":6080,
			"target":34963
		},
		{
			"buffer":0,
			"byteLength":384,
			"byteOffset":6944,
			"target":34962
		},
		{
			"buffer":0,
			"byteLength":384,
			"byteOffset":7328,
			"target":34962
		},
		{
			"buffer":0,
			"byteLength":256,
			"byteOffset":7712,
			"target":34962
		},
		{
			"buffer":0,
			"byteLength":144,
			"byteOffset":7968,
			"target":34963
		},
		{
			"buffer":0,
			"byteLength":2868,
			"byteOffset":8112,
			"target":34962
		},
		{
			"buffer":0,
			"byteLength":2868,
			"byteOffset":10980,
			"target":34962
		},
		{
			"buffer":0,
			"byteLength":1912,
			"byteOffset":13848,
			"target":34962
		},
		{
			"buffer":0,
			"byteLength":1080,
			"byteOffset":15760,
			"target":34963
		},
		{
			"buffer":0,
			"byteLength":456,
			"byteOffset":16840,
			"target":34962
		},
		{
			"buffer":0,
			"byteLength":456,
			"byteOffset":17296,
			"target":34962
		},
		{
			"buffer":0,
			"byteLength":304,
			"byteOffset":17752,
			"target":34962
		},
		{
			"buffer":0,
			"byteLength":168,
			"byteOffset":18056,
			"target":34963
		},
		{
			"buffer":0,
			"byteLength":576,
			"byteOffset":18224,
			"target":34962
		},
		{
			"buffer":0,
			"byteLength":576,
			"byteOffset":18800,
			"target":34962
		},
		{
			"buffer":0,
			"byteLength":384,
			"byteOffset":19376,
			"target":34962
		},
		{
			"buffer":0,
			"byteLength":144,
			"byteOffset":19760,
			"target":34963
		},
		{
			"buffer":0,
			"byteLength":2736,
			"byteOffset":19904,
			"target":34962
		},
		{
			"buffer":0,
			"byteLength":2736,
			"byteOffset":22640,
			"target":34962
		},
		{
			"buffer":0,
			"byteLength":1824,
			"byteOffset":25376,
			"target":34962
		},
		{
			"buffer":0,
			"byteLength":900,
			"byteOffset":27200,
			"target":34963
		}
	],
	"buffers":[
		{
			"byteLength":28100,
			"uri":"house_gable.bin"
		}
	]
}
