{
	"asset":{
		"generator":"Khronos glTF Blender I/O v4.0.44",
		"version":"2.0"
	},
	"scene":0,
	"scenes":[
		{
			"name":"Scene",
			"nodes":[
				0
			]
		}
	],
	"nodes":[
		{
			"mesh":0,
			"name":"nadog_3"
		}
	],
	"materials":[
		{
			"doubleSided":true,
			"name":"wall_bright",
			"pbrMetallicRoughness":{
				"baseColorFactor":[
					0.8009074926376343,
					0.7237274050712585,
					0.4527808427810669,
					1
				],
				"metallicFactor":0,
				"roughnessFactor":0.5
			}
		},
		{
			"doubleSided":true,
			"name":"glass",
			"pbrMetallicRoughness":{
				"baseColorFactor":[
					0.048638783395290375,
					0.048638783395290375,
					0.048638783395290375,
					1
				],
				"metallicFactor":0,
				"roughnessFactor":0.5
			}
		},
		{
			"doubleSided":true,
			"name":"window_frame",
			"pbrMetallicRoughness":{
				"baseColorFactor":[
					0.8579276204109192,
					0.8808721303939819,
					0.8525083661079407,
					1
				],
				"metallicFactor":0,
				"roughnessFactor":0.5
			}
		},
		{
			"doubleSided":true,
			"name":"metal",
			"pbrMetallicRoughness":{
				"baseColorFactor":[
					0.4828864634037018,
					0.4828864634037018,
					0.4828864634037018,
					1
				],
				"metallicFactor":0,
				"roughnessFactor":0.5
			}
		},
		{
			"doubleSided":true,
			"name":"roof",
			"pbrMetallicRoughness":{
				"baseColorFactor":[
					0.2653217911720276,
					0.024257466197013855,
					0.0159663874655962,
					1
				],
				"metallicFactor":0,
				"roughnessFactor":0.5
			}
		}
	],
	"meshes":[
		{
			"name":"Cube.043",
			"primitives":[
				{
					"attributes":{
						"POSITION":0,
						"NORMAL":1,
						"TEXCOORD_0":2
					},
					"indices":3,
					"material":0
				},
				{
					"attributes":{
						"POSITION":4,
						"NORMAL":5,
						"TEXCOORD_0":6
					},
					"indices":7,
					"material":1
				},
				{
					"attributes":{
						"POSITION":8,
						"NORMAL":9,
						"TEXCOORD_0":10
					},
					"indices":11,
					"material":2
				},
				{
					"attributes":{
						"POSITION":12,
						"NORMAL":13,
						"TEXCOORD_0":14
					},
					"indices":15,
					"material":3
				},
				{
					"attributes":{
						"POSITION":16,
						"NORMAL":17,
						"TEXCOORD_0":18
					},
					"indices":19,
					"material":4
				}
			]
		}
	],
	"accessors":[
		{
			"bufferView":0,
			"componentType":5126,
			"count":964,
			"max":[
				1.8300023078918457,
				12.850141525268555,
				1.6062675714492798
			],
			"min":[
				-1.9429421424865723,
				1.1920928955078125e-07,
				-1.6062675714492798
			],
			"type":"VEC3"
		},
		{
			"bufferView":1,
			"componentType":5126,
			"count":964,
			"type":"VEC3"
		},
		{
			"bufferView":2,
			"componentType":5126,
			"count":964,
			"type":"VEC2"
		},
		{
			"bufferView":3,
			"componentType":5123,
			"count":1839,
			"type":"SCALAR"
		},
		{
			"bufferView":4,
			"componentType":5126,
			"count":180,
			"max":[
				1.628876805305481,
				11.912750244140625,
				0.7577940821647644
			],
			"min":[
				-1.566115379333496,
				1.3094154596328735,
				-1.4051425457000732
			],
			"type":"VEC3"
		},
		{
			"bufferView":5,
			"componentType":5126,
			"count":180,
			"type":"VEC3"
		},
		{
			"bufferView":6,
			"componentType":5126,
			"count":180,
			"type":"VEC2"
		},
		{
			"bufferView":7,
			"componentType":5123,
			"count":270,
			"type":"SCALAR"
		},
		{
			"bufferView":8,
			"componentType":5126,
			"count":862,
			"max":[
				1.62887704372406,
				11.967103958129883,
				0.8121477961540222
			],
			"min":[
				-1.5697805881500244,
				0.138484925031662,
				-1.4051425457000732
			],
			"type":"VEC3"
		},
		{
			"bufferView":9,
			"componentType":5126,
			"count":862,
			"type":"VEC3"
		},
		{
			"bufferView":10,
			"componentType":5126,
			"count":862,
			"type":"VEC2"
		},
		{
			"bufferView":11,
			"componentType":5123,
			"count":1704,
			"type":"SCALAR"
		},
		{
			"bufferView":12,
			"componentType":5126,
			"count":627,
			"max":[
				1.8840696811676025,
				10.892667770385742,
				0.8121477961540222
			],
			"min":[
				-1.8213081359863281,
				1.2043638229370117,
				-1.6603351831436157
			],
			"type":"VEC3"
		},
		{
			"bufferView":13,
			"componentType":5126,
			"count":627,
			"type":"VEC3"
		},
		{
			"bufferView":14,
			"componentType":5126,
			"count":627,
			"type":"VEC2"
		},
		{
			"bufferView":15,
			"componentType":5123,
			"count":1452,
			"type":"SCALAR"
		},
		{
			"bufferView":16,
			"componentType":5126,
			"count":20,
			"max":[
				1.672843098640442,
				12.996335983276367,
				1.449108362197876
			],
			"min":[
				-1.6100813150405884,
				12.55063533782959,
				-1.449108362197876
			],
			"type":"VEC3"
		},
		{
			"bufferView":17,
			"componentType":5126,
			"count":20,
			"type":"VEC3"
		},
		{
			"bufferView":18,
			"componentType":5126,
			"count":20,
			"type":"VEC2"
		},
		{
			"bufferView":19,
			"componentType":5123,
			"count":30,
			"type":"SCALAR"
		}
	],
	"bufferViews":[
		{
			"buffer":0,
			"byteLength":11568,
			"byteOffset":0,
			"target":34962
		},
		{
			"buffer":0,
			"byteLength":11568,
			"byteOffset":11568,
			"target":34962
		},
		{
			"buffer":0,
			"byteLength":7712,
			"byteOffset":23136,
			"target":34962
		},
		{
			"buffer":0,
			"byteLength":3678,
			"byteOffset":30848,
			"target":34963
		},
		{
			"buffer":0,
			"byteLength":2160,
			"byteOffset":34528,
			"target":34962
		},
		{
			"buffer":0,
			"byteLength":2160,
			"byteOffset":36688,
			"target":34962
		},
		{
			"buffer":0,
			"byteLength":1440,
			"byteOffset":38848,
			"target":34962
		},
		{
			"buffer":0,
			"byteLength":540,
			"byteOffset":40288,
			"target":34963
		},
		{
			"buffer":0,
			"byteLength":10344,
			"byteOffset":40828,
			"target":34962
		},
		{
			"buffer":0,
			"byteLength":10344,
			"byteOffset":51172,
			"target":34962
		},
		{
			"buffer":0,
			"byteLength":6896,
			"byteOffset":61516,
			"target":34962
		},
		{
			"buffer":0,
			"byteLength":3408,
			"byteOffset":68412,
			"target":34963
		},
		{
			"buffer":0,
			"byteLength":7524,
			"byteOffset":71820,
			"target":34962
		},
		{
			"buffer":0,
			"byteLength":7524,
			"byteOffset":79344,
			"target":34962
		},
		{
			"buffer":0,
			"byteLength":5016,
			"byteOffset":86868,
			"target":34962
		},
		{
			"buffer":0,
			"byteLength":2904,
			"byteOffset":91884,
			"target":34963
		},
		{
			"buffer":0,
			"byteLength":240,
			"byteOffset":94788,
			"target":34962
		},
		{
			"buffer":0,
			"byteLength":240,
			"byteOffset":95028,
			"target":34962
		},
		{
			"buffer":0,
			"byteLength":160,
			"byteOffset":95268,
			"target":34962
		},
		{
			"buffer":0,
			"byteLength":60,
			"byteOffset":95428,
			"target":34963
		}
	],
	"buffers":[
		{
			"byteLength":95488,
			"uri":"nadog_4.bin"
		}
	]
}
