{
	"asset":{
		"generator":"Khronos glTF Blender I/O v4.0.44",
		"version":"2.0"
	},
	"scene":0,
	"scenes":[
		{
			"name":"Scene",
			"nodes":[
				0
			]
		}
	],
	"nodes":[
		{
			"mesh":0,
			"name":"nadog_1"
		}
	],
	"materials":[
		{
			"doubleSided":true,
			"name":"wall_bright",
			"pbrMetallicRoughness":{
				"baseColorFactor":[
					0.8009074926376343,
					0.7237274050712585,
					0.4527808427810669,
					1
				],
				"metallicFactor":0,
				"roughnessFactor":0.5
			}
		},
		{
			"doubleSided":true,
			"name":"glass",
			"pbrMetallicRoughness":{
				"baseColorFactor":[
					0.048638783395290375,
					0.048638783395290375,
					0.048638783395290375,
					1
				],
				"metallicFactor":0,
				"roughnessFactor":0.5
			}
		},
		{
			"doubleSided":true,
			"name":"window_frame",
			"pbrMetallicRoughness":{
				"baseColorFactor":[
					0.8579276204109192,
					0.8808721303939819,
					0.8525083661079407,
					1
				],
				"metallicFactor":0,
				"roughnessFactor":0.5
			}
		},
		{
			"doubleSided":true,
			"name":"metal",
			"pbrMetallicRoughness":{
				"baseColorFactor":[
					0.4828864634037018,
					0.4828864634037018,
					0.4828864634037018,
					1
				],
				"metallicFactor":0,
				"roughnessFactor":0.5
			}
		},
		{
			"doubleSided":true,
			"name":"Material.001",
			"pbrMetallicRoughness":{
				"baseColorFactor":[
					0.2847938537597656,
					0.2847938537597656,
					0.2847938537597656,
					1
				],
				"metallicFactor":0,
				"roughnessFactor":0.5
			}
		}
	],
	"meshes":[
		{
			"name":"Cube.006",
			"primitives":[
				{
					"attributes":{
						"POSITION":0,
						"NORMAL":1,
						"TEXCOORD_0":2
					},
					"indices":3,
					"material":0
				},
				{
					"attributes":{
						"POSITION":4,
						"NORMAL":5,
						"TEXCOORD_0":6
					},
					"indices":7,
					"material":1
				},
				{
					"attributes":{
						"POSITION":8,
						"NORMAL":9,
						"TEXCOORD_0":10
					},
					"indices":11,
					"material":2
				},
				{
					"attributes":{
						"POSITION":12,
						"NORMAL":13,
						"TEXCOORD_0":14
					},
					"indices":15,
					"material":3
				},
				{
					"attributes":{
						"POSITION":16,
						"NORMAL":17,
						"TEXCOORD_0":18
					},
					"indices":19,
					"material":4
				}
			]
		}
	],
	"accessors":[
		{
			"bufferView":0,
			"componentType":5126,
			"count":540,
			"max":[
				5.14024543762207,
				4.227077484130859,
				1.6062675714492798
			],
			"min":[
				-6.743882656097412,
				-3.803217649459839,
				-1.6062675714492798
			],
			"type":"VEC3"
		},
		{
			"bufferView":1,
			"componentType":5126,
			"count":540,
			"type":"VEC3"
		},
		{
			"bufferView":2,
			"componentType":5126,
			"count":540,
			"type":"VEC2"
		},
		{
			"bufferView":3,
			"componentType":5123,
			"count":1314,
			"type":"SCALAR"
		},
		{
			"bufferView":4,
			"componentType":5126,
			"count":124,
			"max":[
				3.9394781589508057,
				3.574885845184326,
				1.4051425457000732
			],
			"min":[
				-6.5427565574646,
				-2.650388240814209,
				-1.4051425457000732
			],
			"type":"VEC3"
		},
		{
			"bufferView":5,
			"componentType":5126,
			"count":124,
			"type":"VEC3"
		},
		{
			"bufferView":6,
			"componentType":5126,
			"count":124,
			"type":"VEC2"
		},
		{
			"bufferView":7,
			"componentType":5123,
			"count":186,
			"type":"SCALAR"
		},
		{
			"bufferView":8,
			"componentType":5126,
			"count":563,
			"max":[
				3.993832588195801,
				3.6292405128479004,
				1.4051425457000732
			],
			"min":[
				-6.542757511138916,
				-2.704742670059204,
				-1.4051425457000732
			],
			"type":"VEC3"
		},
		{
			"bufferView":9,
			"componentType":5126,
			"count":563,
			"type":"VEC3"
		},
		{
			"bufferView":10,
			"componentType":5126,
			"count":563,
			"type":"VEC2"
		},
		{
			"bufferView":11,
			"componentType":5123,
			"count":1098,
			"type":"SCALAR"
		},
		{
			"bufferView":12,
			"componentType":5126,
			"count":450,
			"max":[
				3.993832588195801,
				2.5548036098480225,
				1.6603351831436157
			],
			"min":[
				-6.797950267791748,
				-2.7554397583007812,
				-1.6603351831436157
			],
			"type":"VEC3"
		},
		{
			"bufferView":13,
			"componentType":5126,
			"count":450,
			"type":"VEC3"
		},
		{
			"bufferView":14,
			"componentType":5126,
			"count":450,
			"type":"VEC2"
		},
		{
			"bufferView":15,
			"componentType":5123,
			"count":972,
			"type":"SCALAR"
		},
		{
			"bufferView":16,
			"componentType":5126,
			"count":20,
			"max":[
				4.92724609375,
				4.022472381591797,
				1.442339301109314
			],
			"min":[
				-6.579953193664551,
				1.2466164827346802,
				-1.442339301109314
			],
			"type":"VEC3"
		},
		{
			"bufferView":17,
			"componentType":5126,
			"count":20,
			"type":"VEC3"
		},
		{
			"bufferView":18,
			"componentType":5126,
			"count":20,
			"type":"VEC2"
		},
		{
			"bufferView":19,
			"componentType":5123,
			"count":30,
			"type":"SCALAR"
		}
	],
	"bufferViews":[
		{
			"buffer":0,
			"byteLength":6480,
			"byteOffset":0,
			"target":34962
		},
		{
			"buffer":0,
			"byteLength":6480,
			"byteOffset":6480,
			"target":34962
		},
		{
			"buffer":0,
			"byteLength":4320,
			"byteOffset":12960,
			"target":34962
		},
		{
			"buffer":0,
			"byteLength":2628,
			"byteOffset":17280,
			"target":34963
		},
		{
			"buffer":0,
			"byteLength":1488,
			"byteOffset":19908,
			"target":34962
		},
		{
			"buffer":0,
			"byteLength":1488,
			"byteOffset":21396,
			"target":34962
		},
		{
			"buffer":0,
			"byteLength":992,
			"byteOffset":22884,
			"target":34962
		},
		{
			"buffer":0,
			"byteLength":372,
			"byteOffset":23876,
			"target":34963
		},
		{
			"buffer":0,
			"byteLength":6756,
			"byteOffset":24248,
			"target":34962
		},
		{
			"buffer":0,
			"byteLength":6756,
			"byteOffset":31004,
			"target":34962
		},
		{
			"buffer":0,
			"byteLength":4504,
			"byteOffset":37760,
			"target":34962
		},
		{
			"buffer":0,
			"byteLength":2196,
			"byteOffset":42264,
			"target":34963
		},
		{
			"buffer":0,
			"byteLength":5400,
			"byteOffset":44460,
			"target":34962
		},
		{
			"buffer":0,
			"byteLength":5400,
			"byteOffset":49860,
			"target":34962
		},
		{
			"buffer":0,
			"byteLength":3600,
			"byteOffset":55260,
			"target":34962
		},
		{
			"buffer":0,
			"byteLength":1944,
			"byteOffset":58860,
			"target":34963
		},
		{
			"buffer":0,
			"byteLength":240,
			"byteOffset":60804,
			"target":34962
		},
		{
			"buffer":0,
			"byteLength":240,
			"byteOffset":61044,
			"target":34962
		},
		{
			"buffer":0,
			"byteLength":160,
			"byteOffset":61284,
			"target":34962
		},
		{
			"buffer":0,
			"byteLength":60,
			"byteOffset":61444,
			"target":34963
		}
	],
	"buffers":[
		{
			"byteLength":61504,
			"uri":"nadog_1.bin"
		}
	]
}
