{
	"asset":{
		"generator":"Khronos glTF Blender I/O v4.0.44",
		"version":"2.0"
	},
	"scene":0,
	"scenes":[
		{
			"name":"Scene",
			"nodes":[
				0
			]
		}
	],
	"nodes":[
		{
			"mesh":0,
			"name":"nadog_2"
		}
	],
	"materials":[
		{
			"doubleSided":true,
			"name":"wall_bright",
			"pbrMetallicRoughness":{
				"baseColorFactor":[
					0.8009074926376343,
					0.7237274050712585,
					0.4527808427810669,
					1
				],
				"metallicFactor":0,
				"roughnessFactor":0.5
			}
		},
		{
			"doubleSided":true,
			"name":"glass",
			"pbrMetallicRoughness":{
				"baseColorFactor":[
					0.048638783395290375,
					0.048638783395290375,
					0.048638783395290375,
					1
				],
				"metallicFactor":0,
				"roughnessFactor":0.5
			}
		},
		{
			"doubleSided":true,
			"name":"window_frame",
			"pbrMetallicRoughness":{
				"baseColorFactor":[
					0.8579276204109192,
					0.8808721303939819,
					0.8525083661079407,
					1
				],
				"metallicFactor":0,
				"roughnessFactor":0.5
			}
		},
		{
			"doubleSided":true,
			"name":"metal",
			"pbrMetallicRoughness":{
				"baseColorFactor":[
					0.4828864634037018,
					0.4828864634037018,
					0.4828864634037018,
					1
				],
				"metallicFactor":0,
				"roughnessFactor":0.5
			}
		},
		{
			"doubleSided":true,
			"name":"top",
			"pbrMetallicRoughness":{
				"baseColorFactor":[
					0.2847938537597656,
					0.2847938537597656,
					0.2847938537597656,
					1
				],
				"metallicFactor":0,
				"roughnessFactor":0.5
			}
		}
	],
	"meshes":[
		{
			"name":"Cube.042",
			"primitives":[
				{
					"attributes":{
						"POSITION":0,
						"NORMAL":1,
						"TEXCOORD_0":2
					},
					"indices":3,
					"material":0
				},
				{
					"attributes":{
						"POSITION":4,
						"NORMAL":5,
						"TEXCOORD_0":6
					},
					"indices":7,
					"material":1
				},
				{
					"attributes":{
						"POSITION":8,
						"NORMAL":9,
						"TEXCOORD_0":10
					},
					"indices":11,
					"material":2
				},
				{
					"attributes":{
						"POSITION":12,
						"NORMAL":13,
						"TEXCOORD_0":14
					},
					"indices":15,
					"material":3
				},
				{
					"attributes":{
						"POSITION":16,
						"NORMAL":17,
						"TEXCOORD_0":18
					},
					"indices":19,
					"material":4
				}
			]
		}
	],
	"accessors":[
		{
			"bufferView":0,
			"componentType":5126,
			"count":523,
			"max":[
				7.963968276977539,
				5.833345413208008,
				1.6062675714492798
			],
			"min":[
				-5.999752044677734,
				1.1920928955078125e-07,
				-1.6062675714492798
			],
			"type":"VEC3"
		},
		{
			"bufferView":1,
			"componentType":5126,
			"count":523,
			"type":"VEC3"
		},
		{
			"bufferView":2,
			"componentType":5126,
			"count":523,
			"type":"VEC2"
		},
		{
			"bufferView":3,
			"componentType":5123,
			"count":1242,
			"type":"SCALAR"
		},
		{
			"bufferView":4,
			"componentType":5126,
			"count":116,
			"max":[
				5.980281829833984,
				5.181153297424316,
				1.4051425457000732
			],
			"min":[
				-5.798626899719238,
				1.3094154596328735,
				-1.4051425457000732
			],
			"type":"VEC3"
		},
		{
			"bufferView":5,
			"componentType":5126,
			"count":116,
			"type":"VEC3"
		},
		{
			"bufferView":6,
			"componentType":5126,
			"count":116,
			"type":"VEC2"
		},
		{
			"bufferView":7,
			"componentType":5123,
			"count":174,
			"type":"SCALAR"
		},
		{
			"bufferView":8,
			"componentType":5126,
			"count":558,
			"max":[
				6.0346360206604,
				5.235507965087891,
				1.4051425457000732
			],
			"min":[
				-5.798626899719238,
				1.2550610303878784,
				-1.4051425457000732
			],
			"type":"VEC3"
		},
		{
			"bufferView":9,
			"componentType":5126,
			"count":558,
			"type":"VEC3"
		},
		{
			"bufferView":10,
			"componentType":5126,
			"count":558,
			"type":"VEC2"
		},
		{
			"bufferView":11,
			"componentType":5123,
			"count":1104,
			"type":"SCALAR"
		},
		{
			"bufferView":12,
			"componentType":5126,
			"count":399,
			"max":[
				6.0346360206604,
				4.161071300506592,
				1.6603351831436157
			],
			"min":[
				-6.05381965637207,
				1.2043638229370117,
				-1.6603351831436157
			],
			"type":"VEC3"
		},
		{
			"bufferView":13,
			"componentType":5126,
			"count":399,
			"type":"VEC3"
		},
		{
			"bufferView":14,
			"componentType":5126,
			"count":399,
			"type":"VEC2"
		},
		{
			"bufferView":15,
			"componentType":5123,
			"count":924,
			"type":"SCALAR"
		},
		{
			"bufferView":16,
			"componentType":5126,
			"count":16,
			"max":[
				7.750968933105469,
				5.628740310668945,
				1.442339301109314
			],
			"min":[
				-2.2385807037353516,
				2.852884292602539,
				-1.442339301109314
			],
			"type":"VEC3"
		},
		{
			"bufferView":17,
			"componentType":5126,
			"count":16,
			"type":"VEC3"
		},
		{
			"bufferView":18,
			"componentType":5126,
			"count":16,
			"type":"VEC2"
		},
		{
			"bufferView":19,
			"componentType":5123,
			"count":24,
			"type":"SCALAR"
		}
	],
	"bufferViews":[
		{
			"buffer":0,
			"byteLength":6276,
			"byteOffset":0,
			"target":34962
		},
		{
			"buffer":0,
			"byteLength":6276,
			"byteOffset":6276,
			"target":34962
		},
		{
			"buffer":0,
			"byteLength":4184,
			"byteOffset":12552,
			"target":34962
		},
		{
			"buffer":0,
			"byteLength":2484,
			"byteOffset":16736,
			"target":34963
		},
		{
			"buffer":0,
			"byteLength":1392,
			"byteOffset":19220,
			"target":34962
		},
		{
			"buffer":0,
			"byteLength":1392,
			"byteOffset":20612,
			"target":34962
		},
		{
			"buffer":0,
			"byteLength":928,
			"byteOffset":22004,
			"target":34962
		},
		{
			"buffer":0,
			"byteLength":348,
			"byteOffset":22932,
			"target":34963
		},
		{
			"buffer":0,
			"byteLength":6696,
			"byteOffset":23280,
			"target":34962
		},
		{
			"buffer":0,
			"byteLength":6696,
			"byteOffset":29976,
			"target":34962
		},
		{
			"buffer":0,
			"byteLength":4464,
			"byteOffset":36672,
			"target":34962
		},
		{
			"buffer":0,
			"byteLength":2208,
			"byteOffset":41136,
			"target":34963
		},
		{
			"buffer":0,
			"byteLength":4788,
			"byteOffset":43344,
			"target":34962
		},
		{
			"buffer":0,
			"byteLength":4788,
			"byteOffset":48132,
			"target":34962
		},
		{
			"buffer":0,
			"byteLength":3192,
			"byteOffset":52920,
			"target":34962
		},
		{
			"buffer":0,
			"byteLength":1848,
			"byteOffset":56112,
			"target":34963
		},
		{
			"buffer":0,
			"byteLength":192,
			"byteOffset":57960,
			"target":34962
		},
		{
			"buffer":0,
			"byteLength":192,
			"byteOffset":58152,
			"target":34962
		},
		{
			"buffer":0,
			"byteLength":128,
			"byteOffset":58344,
			"target":34962
		},
		{
			"buffer":0,
			"byteLength":48,
			"byteOffset":58472,
			"target":34963
		}
	],
	"buffers":[
		{
			"byteLength":58520,
			"uri":"nadog_3.bin"
		}
	]
}
