{
	"asset":{
		"generator":"Khronos glTF Blender I/O v4.0.44",
		"version":"2.0"
	},
	"scene":0,
	"scenes":[
		{
			"name":"Scene",
			"nodes":[
				0
			]
		}
	],
	"nodes":[
		{
			"mesh":0,
			"name":"zgrada_1.001"
		}
	],
	"materials":[
		{
			"doubleSided":true,
			"name":"wall_bright",
			"pbrMetallicRoughness":{
				"baseColorFactor":[
					0.8009074926376343,
					0.7237274050712585,
					0.4527808427810669,
					1
				],
				"metallicFactor":0,
				"roughnessFactor":0.5
			}
		},
		{
			"doubleSided":true,
			"name":"glass",
			"pbrMetallicRoughness":{
				"baseColorFactor":[
					0.048638783395290375,
					0.048638783395290375,
					0.048638783395290375,
					1
				],
				"metallicFactor":0,
				"roughnessFactor":0.5
			}
		},
		{
			"doubleSided":true,
			"name":"window_frame",
			"pbrMetallicRoughness":{
				"baseColorFactor":[
					0.8579276204109192,
					0.8808721303939819,
					0.8525083661079407,
					1
				],
				"metallicFactor":0,
				"roughnessFactor":0.5
			}
		},
		{
			"doubleSided":true,
			"name":"top",
			"pbrMetallicRoughness":{
				"baseColorFactor":[
					0.2847938537597656,
					0.2847938537597656,
					0.2847938537597656,
					1
				],
				"metallicFactor":0,
				"roughnessFactor":0.5
			}
		},
		{
			"doubleSided":true,
			"name":"wall_darker",
			"pbrMetallicRoughness":{
				"baseColorFactor":[
					0.5602834224700928,
					0.4642770290374756,
					0.39220142364501953,
					1
				],
				"metallicFactor":0,
				"roughnessFactor":0.5
			}
		}
	],
	"meshes":[
		{
			"name":"Cube.032",
			"primitives":[
				{
					"attributes":{
						"POSITION":0,
						"NORMAL":1,
						"TEXCOORD_0":2
					},
					"indices":3,
					"material":0
				},
				{
					"attributes":{
						"POSITION":4,
						"NORMAL":5,
						"TEXCOORD_0":6
					},
					"indices":7,
					"material":1
				},
				{
					"attributes":{
						"POSITION":8,
						"NORMAL":9,
						"TEXCOORD_0":10
					},
					"indices":11,
					"material":2
				},
				{
					"attributes":{
						"POSITION":12,
						"NORMAL":13,
						"TEXCOORD_0":14
					},
					"indices":15,
					"material":3
				},
				{
					"attributes":{
						"POSITION":16,
						"NORMAL":17,
						"TEXCOORD_0":18
					},
					"indices":19,
					"material":4
				}
			]
		}
	],
	"accessors":[
		{
			"bufferView":0,
			"componentType":5126,
			"count":164,
			"max":[
				2.062039375305176,
				3.607325553894043,
				2.1098551750183105
			],
			"min":[
				-1.789811134338379,
				0,
				-2.5817880630493164
			],
			"type":"VEC3"
		},
		{
			"bufferView":1,
			"componentType":5126,
			"count":164,
			"type":"VEC3"
		},
		{
			"bufferView":2,
			"componentType":5126,
			"count":164,
			"type":"VEC2"
		},
		{
			"bufferView":3,
			"componentType":5123,
			"count":390,
			"type":"SCALAR"
		},
		{
			"bufferView":4,
			"componentType":5126,
			"count":16,
			"max":[
				1.5355348587036133,
				3.093388319015503,
				1.7880349159240723
			],
			"min":[
				-1.5955008268356323,
				1.2632722854614258,
				-1.81605863571167
			],
			"type":"VEC3"
		},
		{
			"bufferView":5,
			"componentType":5126,
			"count":16,
			"type":"VEC3"
		},
		{
			"bufferView":6,
			"componentType":5126,
			"count":16,
			"type":"VEC2"
		},
		{
			"bufferView":7,
			"componentType":5123,
			"count":24,
			"type":"SCALAR"
		},
		{
			"bufferView":8,
			"componentType":5126,
			"count":76,
			"max":[
				1.5750102996826172,
				2.40488338470459,
				1.8334414958953857
			],
			"min":[
				-0.5873689651489258,
				0.11361026763916016,
				-1.9083318710327148
			],
			"type":"VEC3"
		},
		{
			"bufferView":9,
			"componentType":5126,
			"count":76,
			"type":"VEC3"
		},
		{
			"bufferView":10,
			"componentType":5126,
			"count":76,
			"type":"VEC2"
		},
		{
			"bufferView":11,
			"componentType":5123,
			"count":156,
			"type":"SCALAR"
		},
		{
			"bufferView":12,
			"componentType":5126,
			"count":8,
			"max":[
				1.6026954650878906,
				3.4127283096313477,
				1.895035743713379
			],
			"min":[
				-1.574991226196289,
				3.4127283096313477,
				-2.3669686317443848
			],
			"type":"VEC3"
		},
		{
			"bufferView":13,
			"componentType":5126,
			"count":8,
			"type":"VEC3"
		},
		{
			"bufferView":14,
			"componentType":5126,
			"count":8,
			"type":"VEC2"
		},
		{
			"bufferView":15,
			"componentType":5123,
			"count":18,
			"type":"SCALAR"
		},
		{
			"bufferView":16,
			"componentType":5126,
			"count":107,
			"max":[
				2.062039375305176,
				3.1467604637145996,
				2.1098551750183105
			],
			"min":[
				-1.789811134338379,
				0,
				-2.5817880630493164
			],
			"type":"VEC3"
		},
		{
			"bufferView":17,
			"componentType":5126,
			"count":107,
			"type":"VEC3"
		},
		{
			"bufferView":18,
			"componentType":5126,
			"count":107,
			"type":"VEC2"
		},
		{
			"bufferView":19,
			"componentType":5123,
			"count":216,
			"type":"SCALAR"
		}
	],
	"bufferViews":[
		{
			"buffer":0,
			"byteLength":1968,
			"byteOffset":0,
			"target":34962
		},
		{
			"buffer":0,
			"byteLength":1968,
			"byteOffset":1968,
			"target":34962
		},
		{
			"buffer":0,
			"byteLength":1312,
			"byteOffset":3936,
			"target":34962
		},
		{
			"buffer":0,
			"byteLength":780,
			"byteOffset":5248,
			"target":34963
		},
		{
			"buffer":0,
			"byteLength":192,
			"byteOffset":6028,
			"target":34962
		},
		{
			"buffer":0,
			"byteLength":192,
			"byteOffset":6220,
			"target":34962
		},
		{
			"buffer":0,
			"byteLength":128,
			"byteOffset":6412,
			"target":34962
		},
		{
			"buffer":0,
			"byteLength":48,
			"byteOffset":6540,
			"target":34963
		},
		{
			"buffer":0,
			"byteLength":912,
			"byteOffset":6588,
			"target":34962
		},
		{
			"buffer":0,
			"byteLength":912,
			"byteOffset":7500,
			"target":34962
		},
		{
			"buffer":0,
			"byteLength":608,
			"byteOffset":8412,
			"target":34962
		},
		{
			"buffer":0,
			"byteLength":312,
			"byteOffset":9020,
			"target":34963
		},
		{
			"buffer":0,
			"byteLength":96,
			"byteOffset":9332,
			"target":34962
		},
		{
			"buffer":0,
			"byteLength":96,
			"byteOffset":9428,
			"target":34962
		},
		{
			"buffer":0,
			"byteLength":64,
			"byteOffset":9524,
			"target":34962
		},
		{
			"buffer":0,
			"byteLength":36,
			"byteOffset":9588,
			"target":34963
		},
		{
			"buffer":0,
			"byteLength":1284,
			"byteOffset":9624,
			"target":34962
		},
		{
			"buffer":0,
			"byteLength":1284,
			"byteOffset":10908,
			"target":34962
		},
		{
			"buffer":0,
			"byteLength":856,
			"byteOffset":12192,
			"target":34962
		},
		{
			"buffer":0,
			"byteLength":432,
			"byteOffset":13048,
			"target":34963
		}
	],
	"buffers":[
		{
			"byteLength":13480,
			"uri":"nadog_2.bin"
		}
	]
}
