{
	"asset":{
		"generator":"Khronos glTF Blender I/O v4.0.44",
		"version":"2.0"
	},
	"scene":0,
	"scenes":[
		{
			"name":"Scene",
			"nodes":[
				0
			]
		}
	],
	"nodes":[
		{
			"mesh":0,
			"name":"zgrada_1"
		}
	],
	"materials":[
		{
			"doubleSided":true,
			"name":"wall_bright",
			"pbrMetallicRoughness":{
				"baseColorFactor":[
					0.8009074926376343,
					0.7237274050712585,
					0.4527808427810669,
					1
				],
				"metallicFactor":0,
				"roughnessFactor":0.5
			}
		},
		{
			"doubleSided":true,
			"name":"glass",
			"pbrMetallicRoughness":{
				"baseColorFactor":[
					0.048638783395290375,
					0.048638783395290375,
					0.048638783395290375,
					1
				],
				"metallicFactor":0,
				"roughnessFactor":0.5
			}
		},
		{
			"doubleSided":true,
			"name":"window_frame",
			"pbrMetallicRoughness":{
				"baseColorFactor":[
					0.8579276204109192,
					0.8808721303939819,
					0.8525083661079407,
					1
				],
				"metallicFactor":0,
				"roughnessFactor":0.5
			}
		},
		{
			"doubleSided":true,
			"name":"top",
			"pbrMetallicRoughness":{
				"baseColorFactor":[
					0.2847938537597656,
					0.2847938537597656,
					0.2847938537597656,
					1
				],
				"metallicFactor":0,
				"roughnessFactor":0.5
			}
		},
		{
			"doubleSided":true,
			"name":"wall_darker",
			"pbrMetallicRoughness":{
				"baseColorFactor":[
					0.5602834224700928,
					0.4642770290374756,
					0.39220142364501953,
					1
				],
				"metallicFactor":0,
				"roughnessFactor":0.5
			}
		}
	],
	"meshes":[
		{
			"name":"Cube.029",
			"primitives":[
				{
					"attributes":{
						"POSITION":0,
						"NORMAL":1,
						"TEXCOORD_0":2
					},
					"indices":3,
					"material":0
				},
				{
					"attributes":{
						"POSITION":4,
						"NORMAL":5,
						"TEXCOORD_0":6
					},
					"indices":7,
					"material":1
				},
				{
					"attributes":{
						"POSITION":8,
						"NORMAL":9,
						"TEXCOORD_0":10
					},
					"indices":11,
					"material":2
				},
				{
					"attributes":{
						"POSITION":12,
						"NORMAL":13,
						"TEXCOORD_0":14
					},
					"indices":15,
					"material":3
				},
				{
					"attributes":{
						"POSITION":16,
						"NORMAL":17,
						"TEXCOORD_0":18
					},
					"indices":19,
					"material":4
				}
			]
		}
	],
	"accessors":[
		{
			"bufferView":0,
			"componentType":5126,
			"count":2026,
			"max":[
				3.826673984527588,
				18.787790298461914,
				4.041231155395508
			],
			"min":[
				-4.24614143371582,
				0,
				-2.9259517192840576
			],
			"type":"VEC3"
		},
		{
			"bufferView":1,
			"componentType":5126,
			"count":2026,
			"type":"VEC3"
		},
		{
			"bufferView":2,
			"componentType":5126,
			"count":2026,
			"type":"VEC2"
		},
		{
			"bufferView":3,
			"componentType":5123,
			"count":4977,
			"type":"SCALAR"
		},
		{
			"bufferView":4,
			"componentType":5126,
			"count":152,
			"max":[
				2.80350661277771,
				16.773359298706055,
				3.285506010055542
			],
			"min":[
				-2.2150516510009766,
				0.3376493453979492,
				-2.534452438354492
			],
			"type":"VEC3"
		},
		{
			"bufferView":5,
			"componentType":5126,
			"count":152,
			"type":"VEC3"
		},
		{
			"bufferView":6,
			"componentType":5126,
			"count":152,
			"type":"VEC2"
		},
		{
			"bufferView":7,
			"componentType":5123,
			"count":228,
			"type":"SCALAR"
		},
		{
			"bufferView":8,
			"componentType":5126,
			"count":1000,
			"max":[
				2.8643369674682617,
				16.83418846130371,
				3.3309125900268555
			],
			"min":[
				-2.275881767272949,
				0.27681827545166016,
				-2.5798587799072266
			],
			"type":"VEC3"
		},
		{
			"bufferView":9,
			"componentType":5126,
			"count":1000,
			"type":"VEC3"
		},
		{
			"bufferView":10,
			"componentType":5126,
			"count":1000,
			"type":"VEC2"
		},
		{
			"bufferView":11,
			"componentType":5123,
			"count":1938,
			"type":"SCALAR"
		},
		{
			"bufferView":12,
			"componentType":5126,
			"count":33,
			"max":[
				3.5676658153533936,
				18.422361373901367,
				3.4405202865600586
			],
			"min":[
				-4.0691819190979,
				14.429305076599121,
				-2.6669435501098633
			],
			"type":"VEC3"
		},
		{
			"bufferView":13,
			"componentType":5126,
			"count":33,
			"type":"VEC3"
		},
		{
			"bufferView":14,
			"componentType":5126,
			"count":33,
			"type":"VEC2"
		},
		{
			"bufferView":15,
			"componentType":5123,
			"count":87,
			"type":"SCALAR"
		},
		{
			"bufferView":16,
			"componentType":5126,
			"count":112,
			"max":[
				3.7363288402557373,
				15.631747245788574,
				3.6073262691497803
			],
			"min":[
				-3.4783239364624023,
				0,
				3.6073262691497803
			],
			"type":"VEC3"
		},
		{
			"bufferView":17,
			"componentType":5126,
			"count":112,
			"type":"VEC3"
		},
		{
			"bufferView":18,
			"componentType":5126,
			"count":112,
			"type":"VEC2"
		},
		{
			"bufferView":19,
			"componentType":5123,
			"count":258,
			"type":"SCALAR"
		}
	],
	"bufferViews":[
		{
			"buffer":0,
			"byteLength":24312,
			"byteOffset":0,
			"target":34962
		},
		{
			"buffer":0,
			"byteLength":24312,
			"byteOffset":24312,
			"target":34962
		},
		{
			"buffer":0,
			"byteLength":16208,
			"byteOffset":48624,
			"target":34962
		},
		{
			"buffer":0,
			"byteLength":9954,
			"byteOffset":64832,
			"target":34963
		},
		{
			"buffer":0,
			"byteLength":1824,
			"byteOffset":74788,
			"target":34962
		},
		{
			"buffer":0,
			"byteLength":1824,
			"byteOffset":76612,
			"target":34962
		},
		{
			"buffer":0,
			"byteLength":1216,
			"byteOffset":78436,
			"target":34962
		},
		{
			"buffer":0,
			"byteLength":456,
			"byteOffset":79652,
			"target":34963
		},
		{
			"buffer":0,
			"byteLength":12000,
			"byteOffset":80108,
			"target":34962
		},
		{
			"buffer":0,
			"byteLength":12000,
			"byteOffset":92108,
			"target":34962
		},
		{
			"buffer":0,
			"byteLength":8000,
			"byteOffset":104108,
			"target":34962
		},
		{
			"buffer":0,
			"byteLength":3876,
			"byteOffset":112108,
			"target":34963
		},
		{
			"buffer":0,
			"byteLength":396,
			"byteOffset":115984,
			"target":34962
		},
		{
			"buffer":0,
			"byteLength":396,
			"byteOffset":116380,
			"target":34962
		},
		{
			"buffer":0,
			"byteLength":264,
			"byteOffset":116776,
			"target":34962
		},
		{
			"buffer":0,
			"byteLength":174,
			"byteOffset":117040,
			"target":34963
		},
		{
			"buffer":0,
			"byteLength":1344,
			"byteOffset":117216,
			"target":34962
		},
		{
			"buffer":0,
			"byteLength":1344,
			"byteOffset":118560,
			"target":34962
		},
		{
			"buffer":0,
			"byteLength":896,
			"byteOffset":119904,
			"target":34962
		},
		{
			"buffer":0,
			"byteLength":516,
			"byteOffset":120800,
			"target":34963
		}
	],
	"buffers":[
		{
			"byteLength":121316,
			"uri":"zgrada_1.bin"
		}
	]
}
